<svg width="582" height="993" viewBox="0 0 582 993" fill="none" xmlns="http://www.w3.org/2000/svg">
<g filter="url(#filter0_d_2201_26)">
<path d="M387.26 91.34L375.85 103.34L364.43 115.34L353.01 127.34L330.18 151.33L318.76 163.33L307.35 175.33L295.92 187.33L283.92 175.91L271.92 164.5L259.92 153.08L235.92 130.25L223.93 118.83L211.91 107.42L199.91 96L211.35 83.99L222.76 71.99L234.18 59.99L257.01 35.99L268.43 24L279.84 12L291.26 0L387.26 91.34Z" fill="#4BB167"/>
<path d="M296.499 210.76L285.079 222.76L273.669 234.76L262.249 246.76L239.419 270.76L227.999 282.76L216.579 294.76L205.149 306.76L217.149 318.18L229.149 329.59L241.149 341.01L253.149 352.43L265.149 363.84L289.149 386.69L301.149 398.11L313.149 409.52L325.149 420.94L337.149 432.36L349.149 443.77L361.149 455.19L373.149 466.6L385.149 478.02L397.149 489.44L408.579 477.44L419.999 465.44L431.409 453.44L442.829 441.44L454.249 429.44L465.659 417.44L477.079 405.44L488.499 393.44L296.499 210.76Z" fill="#4BB167"/>
<path d="M383.62 888.13L372.2 900.13L360.79 912.13L337.95 936.12L326.54 948.12L315.12 960.12L303.69 972.13L292.28 984.13L4.13965 710.72L84.1697 626.15L95.5896 614.15L129.85 578.14L141.27 566.14L152.69 554.14L175.52 530.15L186.93 518.15L282.92 609.48L271.51 621.48L225.84 669.47L214.42 681.48L202.99 693.48L191.58 705.48L203.58 716.9L215.63 728.28L227.63 739.7L239.63 751.12L251.62 762.53L263.62 773.95L275.62 785.37L287.62 796.78L299.62 808.2L323.63 831.05L335.63 842.46L347.63 853.88L359.62 865.29L371.62 876.71L383.62 888.13Z" fill="#4BB167"/>
<path d="M577.73 684.13L566.31 696.13L543.48 720.12L532.06 732.12L520.64 744.12L509.23 756.12L486.38 780.13L474.97 792.13L463.55 804.13L440.72 828.12L429.3 840.12L417.88 852.12L406.47 864.13L395.04 876.13L299.04 784.78L310.47 772.78L321.88 760.77L367.55 712.78L378.96 700.78L390.38 688.78L378.38 677.37L366.38 665.95L354.39 654.53L342.39 643.12L330.39 631.7L318.39 620.28L294.38 597.44L282.38 586.02L270.38 574.61L258.38 563.19L246.39 551.77L234.39 540.36L222.39 528.94L210.39 517.52L198.39 506.11L186.39 494.69L162.38 471.84L150.38 460.43L138.39 449.01L126.39 437.59L114.39 426.18L102.39 414.76L113.81 402.76L125.24 390.75L136.65 378.75L159.49 354.75L170.9 342.76L182.32 330.76L193.74 318.76L577.73 684.13Z" fill="#4BB167"/>
</g>
<defs>
<filter id="filter0_d_2201_26" x="0.139648" y="0" width="581.59" height="992.13" filterUnits="userSpaceOnUse" color-interpolation-filters="sRGB">
<feFlood flood-opacity="0" result="BackgroundImageFix"/>
<feColorMatrix in="SourceAlpha" type="matrix" values="0 0 0 0 0 0 0 0 0 0 0 0 0 0 0 0 0 0 127 0" result="hardAlpha"/>
<feOffset dy="4"/>
<feGaussianBlur stdDeviation="2"/>
<feComposite in2="hardAlpha" operator="out"/>
<feColorMatrix type="matrix" values="0 0 0 0 0 0 0 0 0 0 0 0 0 0 0 0 0 0 0.25 0"/>
<feBlend mode="normal" in2="BackgroundImageFix" result="effect1_dropShadow_2201_26"/>
<feBlend mode="normal" in="SourceGraphic" in2="effect1_dropShadow_2201_26" result="shape"/>
</filter>
</defs>
</svg>
