<svg id="modelo1" xmlns="http://www.w3.org/2000/svg" viewBox="0 0 1093.29 1087"><defs><style>.cls-1{fill:#351251;}.cls-2{isolation:isolate;font-size:55.67px;fill:#261b62;font-family:CenturyGothic, Century Gothic;}</style></defs><path class="cls-1" d="M713,217.57s2.36-9.14,7.09-13.57l93.32.29s4.72,7.67,5.32,12.68C767.31,216.68,713,217.57,713,217.57Z" transform="translate(-218.19 -204)"/><path class="cls-1" d="M1301.24,640.72s11.07,56.92,10.19,96.57l-3.54.22s-3.54-67.33-8-95.9Z" transform="translate(-218.19 -204)"/><path class="cls-1" d="M1308.11,759l3.1-.22s-2,62-9.52,95.9l-3.32.22S1307,787.56,1308.11,759Z" transform="translate(-218.19 -204)"/><path class="cls-1" d="M337,596.89s-10.34,111.2-10,137.75c-65.85,2.36-67.33,2.65-67.33,2.65l10-122.11S322.28,599.54,337,596.89Z" transform="translate(-218.19 -204)"/><path class="cls-1" d="M238.7,617.24s11.22-46.9,16.24-59.58c-9.75,28.32-21.26,70.79-21.26,70.79s6.2-39.82,29.83-99.7c25.69-29.5,32.78-33,32.78-33L266.76,597.18S242.54,611.63,238.7,617.24Z" transform="translate(-218.19 -204)"/><path class="cls-1" d="M272.37,514.3s32.19-71.68,70.28-108.84L304.26,478S288.61,490.41,272.37,514.3Z" transform="translate(-218.19 -204)"/><path class="cls-1" d="M489.72,276.27s52-28.32,101.59-44.54l-17.72,12.68Z" transform="translate(-218.19 -204)"/><path class="cls-1" d="M591.31,237.92s7.38-8.26,13.88-11.5,52-12.68,96.57-19.17c-4.43,3.54-8.86,7.37-10.63,13.27C677.54,221.7,601.64,234.09,591.31,237.92Z" transform="translate(-218.19 -204)"/><path class="cls-1" d="M583.63,243.82s-22.44,33.33-26.87,46.9c12.7-3.24,80.62-18.88,118.72-20.06.89-4.72,8.27-40.7,11.52-46C661.3,228.19,583.63,243.82,583.63,243.82Z" transform="translate(-218.19 -204)"/><path class="cls-1" d="M709.14,222.58s80.62-1.18,112.22.29l8.86,44.24L701.17,268Z" transform="translate(-218.19 -204)"/><path class="cls-1" d="M842.91,225.53s9.45,30.09,11.81,43.65c56.11,8.55,119.9,21.53,119.9,21.53s-20.67-38-27.46-47.19C897.55,233.79,858,225.24,842.91,225.53Z" transform="translate(-218.19 -204)"/><path class="cls-1" d="M830.51,206.36s77.08,13.86,93.91,19.17c17.72,12.39,19.49,13.86,19.49,13.86S864.18,222,841.44,220.51Z" transform="translate(-218.19 -204)"/><path class="cls-1" d="M942.73,232.61s76.49,28.91,98.93,46.6c-11.81-5-56.4-25.66-81.8-33.92Z" transform="translate(-218.19 -204)"/><path class="cls-1" d="M699.24,1291s-8.19-9.51-9.08-12.61c0,0-91.92-14.16-99-19C594.48,1263.57,602.45,1279.72,699.24,1291Z" transform="translate(-218.19 -204)"/><path class="cls-1" d="M583.41,1254.06s-27.46-42.25-28.13-47.56c9.75,3.54,86.82,19,119.16,21.68l13.29,45.57S598,1261.14,583.41,1254.06Z" transform="translate(-218.19 -204)"/><path class="cls-1" d="M589.83,1265.56l-18.16-11.28-77.3-32.52,1.11,3.32S568.57,1262.91,589.83,1265.56Z" transform="translate(-218.19 -204)"/><path class="cls-1" d="M564.36,1247.86s-26.14-37.61-29.46-45.79c0,0-81.06-25.44-93.25-36.72,5.32,11.5,41.86,49.77,41.86,49.77S552.18,1245.21,564.36,1247.86Z" transform="translate(-218.19 -204)"/><path class="cls-1" d="M346.2,1096.11s-36.32-61.94-42.08-76.32c-9.75-8.41-30.79-33.63-30.79-33.63S319.62,1077.08,346.2,1096.11Z" transform="translate(-218.19 -204)"/><path class="cls-1" d="M295.25,1001.42s-43.85-25-61.79-129.63c0,0,13.07,54,18.83,62.61-2.88-9.07-15.06-46.46-15.95-56.19,17.5,14.38,21.48,17.26,29.9,22.12C271.56,921.34,295.25,1001.42,295.25,1001.42Z" transform="translate(-218.19 -204)"/><path class="cls-1" d="M262,877.32l-29.68-17.26s-9.08-71.23-8-100.21l27.91.66S259.82,868,262,877.32Z" transform="translate(-218.19 -204)"/><path class="cls-1" d="M232.57,640.61s-8.64,52.87-10.19,98.89h-3.54s7.31-85.39,10.41-98Z" transform="translate(-218.19 -204)"/><path class="cls-1" d="M1268.68,619.23s8,70.43,8.86,117.39l28.79.89s-2.88-88.15-8.42-100.55C1287.29,628.53,1268.68,619.23,1268.68,619.23Z" transform="translate(-218.19 -204)"/><path class="cls-1" d="M1278.21,760.54S1271.12,862.42,1268,877c20.82-9.75,29.24-17.72,29.24-17.72s5.76-23.48,9.75-100.55Z" transform="translate(-218.19 -204)"/><path class="cls-1" d="M431.54,343.81l-36.91,83.77s85.05-26.55,104-32.15c6.5-20.35,29.53-84.65,29.53-84.65Z" transform="translate(-218.19 -204)"/><path class="cls-1" d="M369.89,455.45S347.52,540,343.53,569.16C308.09,580.66,277.08,592,277.08,592s23-92.69,27.46-102.65C367,457,369.89,455.45,369.89,455.45Z" transform="translate(-218.19 -204)"/><path class="cls-1" d="M345.61,399.56s62-77.28,134.07-115.62c-15.65,13.27-46.36,45.13-52.27,56.93C403.19,354.72,365.39,376,345.61,399.56Z" transform="translate(-218.19 -204)"/><path class="cls-1" d="M441,330.83s33.67-42.18,43.71-48.08,78.85-31.56,78.85-31.56l-28,44.54Z" transform="translate(-218.19 -204)"/><path class="cls-1" d="M415,355s-30.42,61.65-36.32,79.34c-5.61,2.95-64.67,36-64.67,36s24.51-52.8,36-70.2C354.76,395.13,380.75,370.65,415,355Z" transform="translate(-218.19 -204)"/><path class="cls-1" d="M858,283.05s10.34,60.76,12.4,87.6c57.88,5.6,138.5,19.76,138.5,19.76s-22.44-74.92-28.35-87.31C917.33,291.31,858,283.05,858,283.05Z" transform="translate(-218.19 -204)"/><path class="cls-1" d="M967.83,251.49s16.54,21.83,27.17,45.72c0,0,44.59,13.86,92.73,34.22,0,0-17.72-28.91-37.5-46.6C1050.22,284.82,985.85,255,967.83,251.49Z" transform="translate(-218.19 -204)"/><path class="cls-1" d="M1052.29,284.23s38.39,31,51.68,56.34c0,0,45.77,21.24,82.69,63.71C1176.91,388.94,1103.08,306.65,1052.29,284.23Z" transform="translate(-218.19 -204)"/><path class="cls-1" d="M1114.6,354.72s33.37,67,37.21,79c8.56,4.13,50.5,26.25,65.56,37.16-12.11-28.32-34-67-39.28-74.33C1178.09,396.61,1134.09,360.92,1114.6,354.72Z" transform="translate(-218.19 -204)"/><path class="cls-1" d="M1187,406.05s32.19,53.39,40.16,73.15c4.13,4.13,20.38,19.76,31.6,36.28C1247.2,489.82,1207.63,419,1187,406.05Z" transform="translate(-218.19 -204)"/><path class="cls-1" d="M1234.79,498.66s18.9,51.62,28.35,97.63c24.22,17.7,29.53,22.12,29.53,22.12l-11.81-46s13.88,46.6,16,55.16c-1.48-13.86-19.2-77-30.71-97.34C1257.24,519,1234.79,498.66,1234.79,498.66Z" transform="translate(-218.19 -204)"/><path class="cls-1" d="M1161,454.42s20.38,75.21,26.87,115.33c21.26,6.19,65.85,23,65.85,23s-14.77-69.91-27.17-103.24C1226.53,489.52,1178.68,461.79,1161,454.42Z" transform="translate(-218.19 -204)"/><path class="cls-1" d="M1203.56,763.83s-8.64,117.69-10,136.71c35.44-8,66-18.14,66-18.14s10.63-80.52,10.63-120.34Z" transform="translate(-218.19 -204)"/><path class="cls-1" d="M477.09,1212.69s-43-37.16-51.38-55.08c-7.75-3.54-58.25-36.06-76.63-56.63C370.34,1127.08,427.26,1186.81,477.09,1212.69Z" transform="translate(-218.19 -204)"/><path class="cls-1" d="M415.74,1143.89S359.26,1110,353.06,1103c-31.23-58.84-40.53-74.77-40.53-74.77l65.56,35.4S405.33,1127.3,415.74,1143.89Z" transform="translate(-218.19 -204)"/><path class="cls-1" d="M305.22,1009.17,370.78,1043s-25.25-95.35-27.69-114.59c-12-2.21-67.11-22.56-67.11-22.56S299.91,999,305.22,1009.17Z" transform="translate(-218.19 -204)"/><path class="cls-1" d="M231.25,857.41H229s-10-63.49-10.85-97.78h4.21S231,852.54,231.25,857.41Z" transform="translate(-218.19 -204)"/><path class="cls-1" d="M395.81,1071.48s81.21,28,102.77,30.68c8.27,31.27,30.42,86.72,30.42,86.72s-90.37-31.56-96.27-34.81S396.1,1079.15,395.81,1071.48Z" transform="translate(-218.19 -204)"/><path class="cls-1" d="M522.79,1109.23,550,1194.77s87.12,19.76,123.15,19.76c-6.5-40.11-13.29-87.9-13.29-87.9S535.79,1114.54,522.79,1109.23Z" transform="translate(-218.19 -204)"/><path class="cls-1" d="M457.85,854.85a75.52,75.52,0,0,1-32.11-33q-11.07-21.68-11.06-52.36V698.31q0-30.67,11.06-52.36a76,76,0,0,1,32.11-33.09q21-11.42,50.66-11.42,24.43,0,43.7,10.52t31.84,30.59q12.57,20.07,17.39,48.43H550.78A65.51,65.51,0,0,0,542,669a42.32,42.32,0,0,0-14.45-13.91,37.77,37.77,0,0,0-19-4.82q-13.74,0-23.37,5.62a36.42,36.42,0,0,0-14.72,16.41q-5.09,10.8-5.08,26v71.18q0,15.16,5.08,25.87a36.35,36.35,0,0,0,14.72,16.32q9.64,5.61,23.37,5.62a39.11,39.11,0,0,0,19.27-4.73,40.52,40.52,0,0,0,14.45-13.83,64.13,64.13,0,0,0,8.56-22.12h50.66q-5,28.36-17.57,48.43t-31.75,30.59q-19.18,10.53-43.62,10.52Q478.91,866.2,457.85,854.85Z" transform="translate(-218.19 -204)"/><path class="cls-1" d="M642.39,604.13h48.88V863.5H642.39ZM663.8,816.41h82.77q16.77,0,26-8.12t9.19-22.74V785q0-9.81-4.1-16.77a26.34,26.34,0,0,0-12-10.61q-7.94-3.66-19-3.66H663.8V706.88h82.77q15.16,0,23.46-7.67t8.29-21.58q0-12.48-8.29-19.44t-23.46-7H663.8V604.14h84.38q25.16,0,43,8.29t27.11,24.08q9.27,15.78,9.28,37.91,0,15.17-6,26.85a49.89,49.89,0,0,1-17.39,19.18q-11.41,7.5-27.47,10.17,17.13,2.32,29.34,10.44a52.62,52.62,0,0,1,18.55,21.14q6.33,13,6.33,30.15v.54q0,22.3-9.37,38.17t-27.29,24.17q-17.92,8.29-43.08,8.29H663.8Z" transform="translate(-218.19 -204)"/><path class="cls-1" d="M1037.78,604.13h64.4V863.5h-44.42V662.1l1.78,11.42L1010,834.6H966.78L917.2,677.09l1.78-15v201.4H874.56V604.13H939L988.37,779Z" transform="translate(-218.19 -204)"/><text class="cls-2" transform="translate(165.86 737.07)">Compañía Brillante Mundial</text><polygon class="cls-1" points="857.95 184.43 851.37 201.62 841.73 185.94 823.34 185 835.27 170.98 830.49 153.2 847.51 160.22 862.94 150.17 861.52 168.53 875.84 180.1 857.95 184.43"/><polygon class="cls-1" points="218.84 271.56 242.47 270.65 228.81 289.96 236.98 312.17 214.39 305.14 195.8 319.77 195.5 296.12 175.84 282.96 198.25 275.36 204.69 252.6 218.84 271.56"/><polygon class="cls-1" points="85.92 615.43 105.11 614.11 94.49 630.14 101.67 647.97 83.15 642.82 68.41 655.17 67.57 635.96 51.28 625.76 69.29 619.03 73.96 600.38 85.92 615.43"/><polygon class="cls-1" points="230.68 809.73 253.45 814.18 236.06 829.54 238.86 852.57 218.88 840.78 197.84 850.56 202.88 827.91 187.08 810.93 210.17 808.72 221.45 788.44 230.68 809.73"/><polygon class="cls-1" points="357.31 849.02 375.88 852.65 361.7 865.17 363.98 883.95 347.69 874.34 330.53 882.31 334.64 863.85 321.76 849.99 340.59 848.19 349.78 831.66 357.31 849.02"/><polygon class="cls-1" points="1017.4 458.29 1040.61 462.83 1022.88 478.49 1025.73 501.97 1005.36 489.95 983.91 499.92 989.05 476.83 972.94 459.51 996.49 457.26 1007.98 436.58 1017.4 458.29"/><polygon class="cls-1" points="910.48 289.87 929.26 293.55 914.92 306.22 917.22 325.21 900.75 315.49 883.4 323.55 887.55 304.87 874.52 290.86 893.57 289.04 902.87 272.32 910.48 289.87"/><polygon class="cls-1" points="744.63 221.17 767.92 225.34 750.45 241.29 753.68 264.72 733.12 253.03 711.83 263.35 716.59 240.18 700.2 223.12 723.71 220.49 734.86 199.63 744.63 221.17"/><polygon class="cls-1" points="542.59 119.74 563.52 108.73 559.52 132.05 576.46 148.56 553.05 151.96 542.59 173.17 532.12 151.96 508.71 148.56 525.65 132.05 521.65 108.73 542.59 119.74"/><polygon class="cls-1" points="395.29 127.1 416.23 116.09 412.23 139.41 429.17 155.92 405.76 159.32 395.29 180.54 384.82 159.32 361.41 155.92 378.35 139.41 374.35 116.09 395.29 127.1"/></svg>